<svg width="1439" height="236" viewBox="0 0 1439 236" fill="none" xmlns="http://www.w3.org/2000/svg">
<path d="M137.5 158.5C56.5471 174.18 -2 0 -2 0H1439C1439 0 1412.9 69.1222 1384 105.5C1350.48 147.688 1330.14 186.832 1276.5 192C1202.68 199.113 1213 65.8953 1139 61C1090.59 57.7975 1067.32 125.244 1023 105.5C1000.55 95.499 1000.81 71.302 978.5 61C914.993 31.6789 1003.92 232.491 934 234.5C868.694 236.377 919.756 72.2292 856 86.5C812.821 96.1649 831.31 166.313 788.5 177.5C724.982 194.098 738.891 -0.67149 689 42C668.22 59.7728 659.5 105.5 659.5 105.5C659.5 105.5 553.98 192.713 480 177.5C399.233 160.891 408.5 17 340.5 19C272.5 21 319 118.5 319 118.5C319 118.5 306.271 223.086 256 234.5C189.42 249.616 302.502 67.0865 234.5 61C181.004 56.2119 190.23 148.287 137.5 158.5Z" fill="url(#paint0_linear_24_41)" stroke="url(#paint1_linear_24_41)"/>
<defs>
<linearGradient id="paint0_linear_24_41" x1="718.5" y1="0" x2="718.5" y2="235.389" gradientUnits="userSpaceOnUse">
<stop stop-color="#1278F6"/>
<stop offset="1" stop-color="#1278F6" stop-opacity="0"/>
</linearGradient>
<linearGradient id="paint1_linear_24_41" x1="718.5" y1="0" x2="718.5" y2="235.389" gradientUnits="userSpaceOnUse">
<stop stop-color="white"/>
<stop offset="1" stop-color="#1278F6" stop-opacity="0"/>
</linearGradient>
</defs>
</svg>
