<svg width="1440" height="678" viewBox="0 0 1440 678" fill="none" xmlns="http://www.w3.org/2000/svg">
<path d="M-3.2703 324.678C-34.1621 459.219 -3.2703 678 -3.2703 678H1449V288.196C1449 288.196 1426.7 267.41 1408.66 265.207C1372.99 260.851 1361.73 298.168 1341.59 327.676C1320.26 358.935 1321.97 383.307 1307.3 418.131C1284.37 472.583 1280.98 510.571 1240.74 554.062C1204.71 593.008 1176.66 611.276 1125.77 627.026C1068.25 644.827 1028.79 645.446 971.465 627.026C921.848 611.081 895.923 591.564 860.024 554.062C818.183 510.354 799.523 476.959 786.402 418.131C773.376 359.728 806.551 323.909 794.974 265.207C774.848 163.151 740.276 43.2518 635.628 50.8152C545.416 57.3351 579.035 244.442 489.897 229.225C421.793 217.6 448.947 87.6347 379.968 91.7946C322.258 95.2748 335.413 188.055 278.611 198.741C189.206 215.56 239.036 31.306 152.042 4.83827C18.3329 -35.8423 27.7638 189.516 -3.2703 324.678Z" fill="url(#paint0_linear_4_67)" fill-opacity="0.41"/>
<defs>
<linearGradient id="paint0_linear_4_67" x1="722.865" y1="4.83833" x2="722.865" y2="678" gradientUnits="userSpaceOnUse">
<stop stop-color="#1278F6" stop-opacity="0"/>
<stop offset="0.755208" stop-color="#1278F6"/>
</linearGradient>
</defs>
</svg>
