<svg width="1440" height="646" viewBox="0 0 1440 646" fill="none" xmlns="http://www.w3.org/2000/svg">
<path d="M209.88 62.1172C117.514 74.6682 -3.00626 170.058 -3.00626 170.058V646H1440V254.402C1440 254.402 1422.96 235.5 1377.74 287.537C1332.52 339.574 1349.84 323.795 1338.08 350.293C1324.61 380.63 1324.92 400.399 1316.99 432.629C1308.18 468.418 1314.07 492.725 1295.4 524.504C1269 569.433 1234.58 582.359 1185.89 600.647L1185.44 600.816C1139.9 617.917 1110.49 614.052 1061.93 616.881C1022.19 619.196 998.878 625.428 960.002 616.881C903.774 604.519 875.762 580.591 832.973 542.076C799.403 511.858 779.123 493.206 760.17 452.209C727.755 382.089 776.291 284.804 760.17 254.402C744.05 224 770.585 201.687 713.476 170.058C656.367 138.429 632.852 -175.352 486.029 138.429C339.207 452.209 320.746 47.0523 209.88 62.1172Z" fill="url(#paint0_linear_4_27)" fill-opacity="0.55"/>
<defs>
<linearGradient id="paint0_linear_4_27" x1="718.497" y1="62.1172" x2="718.497" y2="646" gradientUnits="userSpaceOnUse">
<stop stop-color="#1278F6" stop-opacity="0"/>
<stop offset="1" stop-color="#1278F6"/>
</linearGradient>
</defs>
</svg>
