<svg width="1025" height="1025" viewBox="0 0 1025 1025" fill="none" xmlns="http://www.w3.org/2000/svg" xmlns:xlink="http://www.w3.org/1999/xlink">
<g clip-path="url(#clip0_84_10)">
<rect width="1025" height="1025" fill="transparent"/>
<path class="developer__img-content-1" d="M82.2319 667.553C106.931 761.216 162.885 843.632 240.824 901.149C318.764 958.666 414.014 987.833 510.795 983.819C607.577 979.805 700.084 942.85 772.993 879.077C845.902 815.303 894.839 728.537 911.697 633.15C928.556 537.764 912.324 439.48 865.691 354.579C819.058 269.678 744.822 203.254 655.279 166.31C565.736 129.365 466.259 124.117 373.326 151.435C280.393 178.753 199.579 236.997 144.272 316.52L166.742 332.147C218.487 257.746 294.096 203.252 381.045 177.694C467.993 152.136 561.063 157.046 644.84 191.611C728.616 226.176 798.071 288.322 841.701 367.755C885.331 447.189 900.518 539.143 884.745 628.387C868.973 717.631 823.187 798.809 754.974 858.476C686.76 918.142 600.21 952.717 509.661 956.472C419.112 960.228 329.997 932.939 257.076 879.126C184.156 825.313 131.806 748.205 108.697 660.574L82.2319 667.553Z" fill="url(#paint0_linear_84_10)"/>
<path class="developer__img-content-2" d="M832 559.5C832 501.202 818.231 443.804 791.912 392.39C765.594 340.976 727.538 297.133 681.116 264.744C634.694 232.355 581.339 212.421 525.777 206.707C470.215 200.993 414.16 209.675 362.579 231.985C310.998 254.294 265.482 289.543 230.063 334.608C194.644 379.672 170.416 433.163 159.523 490.34C148.631 547.518 151.412 606.618 167.619 662.406C183.826 718.193 212.959 768.947 252.437 810.169L267.893 794.031C230.956 755.462 203.699 707.976 188.535 655.781C173.372 603.585 170.77 548.29 180.961 494.793C191.152 441.297 213.821 391.25 246.959 349.087C280.098 306.923 322.683 273.944 370.944 253.071C419.204 232.198 471.649 224.074 523.634 229.421C575.619 234.767 625.539 253.418 668.973 283.721C712.406 314.024 748.011 355.045 772.635 403.149C797.26 451.253 810.142 504.955 810.142 559.5H832Z" fill="url(#paint1_linear_84_10)"/>
<rect width="1024" height="1021" fill="url(#pattern0)"/>
</g>
<defs>
<pattern id="pattern0" patternContentUnits="objectBoundingBox" width="1" height="1">
<image href="/assets/images/abdillah_madi.png" transform="matrix(0.000888889 0 0 0.000891498 0 -0.00146771)" />
</pattern>
<linearGradient id="paint0_linear_84_10" x1="601.552" y1="970.135" x2="384.814" y2="148.232" gradientUnits="userSpaceOnUse">
<stop stop-color="#1278F6"/>
<stop offset="0.578125" stop-color="#5CE1E6"/>
</linearGradient>
<linearGradient id="paint1_linear_84_10" x1="492.5" y1="205" x2="492.5" y2="914" gradientUnits="userSpaceOnUse">
<stop stop-color="#1278F6"/>
<stop offset="0.578125" stop-color="#5CE1E6"/>
</linearGradient>
<clipPath id="clip0_84_10">
<rect width="1025" height="1025" fill="white"/>
</clipPath>
<image src="/assets/images/abdillah_madi.png" id="image0_84_10" width="1125" height="1125" />
</defs>
</svg>
